<svg width="32" height="28" viewBox="0 0 32 28" fill="none" xmlns="http://www.w3.org/2000/svg">
<path d="M31.9387 4.09196C30.7587 4.61063 29.4987 4.96396 28.172 5.1253C29.524 4.31063 30.564 3.02663 31.056 1.49463C29.788 2.23463 28.3827 2.7733 26.8867 3.0733C25.692 1.79463 23.9893 0.994629 22.0987 0.994629C18.476 0.994629 15.5387 3.93196 15.5387 7.55063C15.5387 8.07063 15.5987 8.57063 15.708 9.04929C10.2547 8.79196 5.42133 6.1733 2.18667 2.21463C1.61733 3.1773 1.29867 4.29596 1.29867 5.51463C1.29867 7.79463 2.45867 9.79863 4.216 10.976C3.14 10.9413 2.128 10.6453 1.24533 10.1546V10.236C1.24533 13.416 3.50267 16.068 6.50667 16.672C5.956 16.82 5.37467 16.9 4.77867 16.9C4.36 16.9 3.95867 16.86 3.55733 16.7853C4.39867 19.3893 6.81733 21.288 9.696 21.3413C7.456 23.1 4.61733 24.148 1.56 24.148C1.04 24.148 0.521333 24.1173 0 24.0586C2.91867 25.9173 6.35733 27.004 10.076 27.004C22.148 27.004 28.7413 17.0093 28.7413 8.35596C28.7413 8.07729 28.7413 7.79596 28.7213 7.51596C30.0027 6.59729 31.1213 5.43596 32.0013 4.11863L31.9387 4.09196Z" fill="#1A1F24"/>
</svg>
